<svg viewBox="0 0 24 24"  xmlns="http://www.w3.org/2000/svg" style="display:none">

	<symbol viewBox="0 0 7 5" id="drop-down-arrow">
		<path fill-rule="evenodd" clip-rule="evenodd" d="M0.146484 1.35359L0.853591 0.646484L3.50004 3.29293L6.14648 0.646484L6.85359 1.35359L3.50004 4.70714L0.146484 1.35359Z" fill="currentColor"/>
	</symbol>

	<symbol viewBox="0 0 12 7" id="drop-down-arrow-2">
		<path fill-rule="evenodd" clip-rule="evenodd" d="M0.646484 1.35359L1.35359 0.646484L6.00004 5.29293L10.6465 0.646484L11.3536 1.35359L6.00004 6.70714L0.646484 1.35359Z" fill="currentColor"/>
	</symbol>

	<symbol viewBox="0 0 35 35" id="search">
		<path d="M29.8225 28.7924L24.1257 23.0956C25.8741 21.1018 26.8389 18.5789 26.8389 15.9023C26.8389 12.9807 25.701 10.2342 23.6352 8.16848C21.5695 6.10274 18.823 4.96484 15.9014 4.96484C12.9797 4.96484 10.2332 6.10274 8.1675 8.16848C6.10177 10.2342 4.96387 12.9807 4.96387 15.9023C4.96387 18.824 6.10177 21.5705 8.1675 23.6362C10.2332 25.7019 12.9797 26.8398 15.9014 26.8398C18.5779 26.8398 21.1008 25.8751 23.0946 24.1267L28.7914 29.8234C28.9338 29.9659 29.1204 30.0371 29.3069 30.0371C29.4935 30.0371 29.6801 29.9659 29.8225 29.8234C30.1073 29.5386 30.1073 29.0772 29.8225 28.7924ZM9.19859 22.6051C7.40843 20.8146 6.4222 18.4341 6.4222 15.9023C6.4222 13.3706 7.40843 10.9901 9.19859 9.19956C10.9891 7.4094 13.3696 6.42318 15.9014 6.42318C18.4332 6.42318 20.8136 7.4094 22.6041 9.19956C24.3943 10.9901 25.3805 13.3706 25.3805 15.9023C25.3805 18.4341 24.3943 20.8146 22.6041 22.6051C20.8136 24.3953 18.4332 25.3815 15.9014 25.3815C13.3696 25.3815 10.9891 24.3953 9.19859 22.6051Z" fill="currentColor"/>
	</symbol>

	<symbol viewBox="0 0 28 27" id="favorites">
		<path d="M13.875 25.4979C13.4799 25.4979 13.099 25.3586 12.8022 25.1057C11.6812 24.1519 10.6004 23.2557 9.64681 22.465L9.64194 22.4609C6.84624 20.1429 4.43205 18.141 2.7523 16.1691C0.874596 13.9645 0 11.8743 0 9.59086C0 7.37231 0.781865 5.32555 2.20142 3.82736C3.6379 2.31145 5.60897 1.47656 7.75217 1.47656C9.35401 1.47656 10.821 1.9693 12.1122 2.94097C12.7639 3.43144 13.3546 4.03171 13.875 4.73188C14.3956 4.03171 14.9861 3.43144 15.6379 2.94097C16.9292 1.9693 18.3962 1.47656 19.998 1.47656C22.141 1.47656 24.1123 2.31145 25.5487 3.82736C26.9683 5.32555 27.7499 7.37231 27.7499 9.59086C27.7499 11.8743 26.8756 13.9645 24.9979 16.1689C23.3181 18.141 20.9041 20.1427 18.1089 22.4605C17.1536 23.2524 16.0711 24.1501 14.9475 25.1061C14.6509 25.3586 14.2698 25.4979 13.875 25.4979ZM7.75217 3.05818C6.0684 3.05818 4.5216 3.71201 3.39634 4.89935C2.25434 6.10462 1.62534 7.7707 1.62534 9.59086C1.62534 11.5113 2.35893 13.2289 4.00375 15.1599C5.59352 17.0264 7.95817 18.9871 10.6961 21.2573L10.7011 21.2614C11.6583 22.0551 12.7434 22.9549 13.8726 23.9157C15.0087 22.953 16.0954 22.0518 17.0545 21.2569C19.7922 18.9866 22.1566 17.0264 23.7464 15.1599C25.391 13.2289 26.1246 11.5113 26.1246 9.59086C26.1246 7.7707 25.4956 6.10462 24.3536 4.89935C23.2286 3.71201 21.6816 3.05818 19.998 3.05818C18.7645 3.05818 17.6321 3.43968 16.6321 4.19197C15.741 4.86269 15.1203 5.71056 14.7563 6.30382C14.5692 6.60889 14.2398 6.79099 13.875 6.79099C13.5102 6.79099 13.1808 6.60889 12.9936 6.30382C12.6299 5.71056 12.0091 4.86269 11.1178 4.19197C10.1179 3.43968 8.98541 3.05818 7.75217 3.05818Z" fill="currentColor"/>
	</symbol>

	<symbol viewBox="0 0 32 30" id="favorites-active">
		<path d="M22.6712 0C21.1792 0 19.7532 0.342037 18.4329 1.01668C17.5341 1.47583 16.7084 2.08587 16 2.80967C15.2915 2.08587 14.4659 1.47583 13.5671 1.01668C12.2468 0.342037 10.8208 0 9.32869 0C4.18487 0 0 4.18487 0 9.32876C0 12.9721 1.92416 16.8416 5.71896 20.8299C8.88742 24.1599 12.7666 26.9358 15.4629 28.6781L16 29.0253L16.5371 28.6781C19.2334 26.9359 23.1126 24.1599 26.2811 20.8299C30.0759 16.8416 32 12.9721 32 9.32876C32 4.18487 27.8151 0 22.6712 0Z" fill="currentColor"/>
	</symbol>

	<symbol viewBox="0 0 31 31" id="user">
		<path d="M3.53371 28.9227C3.50271 28.9227 3.50271 28.9227 3.47171 28.9227C3.06871 28.8917 2.78971 28.5507 2.82071 28.1787C3.22371 22.2577 8.80371 17.6387 15.4997 17.6387C22.1957 17.6387 27.7757 22.2577 28.1787 28.1477C28.2097 28.5507 27.8997 28.8607 27.5277 28.8917C27.1247 28.9227 26.8147 28.6127 26.7837 28.2407C26.4117 23.0637 21.4517 19.0337 15.4997 19.0337C9.51671 19.0337 4.55671 23.0947 4.21571 28.2717C4.18471 28.6437 3.87471 28.9227 3.53371 28.9227Z" fill="currentColor"/>
		<path d="M15.4996 16.2122C11.5936 16.2122 8.43164 13.0502 8.43164 9.14417C8.43164 5.23817 11.5936 2.07617 15.4996 2.07617C19.4056 2.07617 22.5676 5.23817 22.5676 9.14417C22.5676 13.0502 19.4056 16.2122 15.4996 16.2122ZM15.4996 3.50217C12.3996 3.50217 9.85764 6.04417 9.85764 9.14417C9.85764 12.2442 12.3996 14.7862 15.4996 14.7862C18.5996 14.7862 21.1416 12.2442 21.1416 9.14417C21.1416 6.04417 18.5996 3.50217 15.4996 3.50217Z" fill="currentColor"/>
	</symbol>

	<symbol viewBox="0 0 28 28" id="cart">
		<path d="M24.8803 22.1371L22.7147 9.28773C22.6112 8.67504 22.2936 8.11894 21.8185 7.71839C21.3435 7.31783 20.7417 7.09879 20.1203 7.10023H19.1097V6.22523C19.1097 4.86998 18.5714 3.57023 17.613 2.61192C16.6547 1.65361 15.355 1.11523 13.9997 1.11523C12.6445 1.11523 11.3447 1.65361 10.3864 2.61192C9.4281 3.57023 8.88972 4.86998 8.88972 6.22523V7.10023H7.87472C7.25334 7.09879 6.65159 7.31783 6.17653 7.71839C5.70147 8.11894 5.38391 8.67504 5.28035 9.28773L3.1191 22.1371C3.02054 22.7234 3.05097 23.3242 3.20828 23.8976C3.36559 24.4709 3.64599 25.0031 4.02996 25.457C4.41393 25.911 4.89224 26.2757 5.43157 26.526C5.97091 26.7762 6.5583 26.9058 7.15285 26.9059H20.8466C21.4412 26.9058 22.0285 26.7762 22.5679 26.526C23.1072 26.2757 23.5855 25.911 23.9695 25.457C24.3535 25.0031 24.6339 24.4709 24.7912 23.8976C24.9485 23.3242 24.9789 22.7234 24.8803 22.1371ZM10.2022 6.20336C10.2022 5.1962 10.6023 4.23029 11.3145 3.51812C12.0267 2.80595 12.9926 2.40586 13.9997 2.40586C15.0069 2.40586 15.9728 2.80595 16.685 3.51812C17.3971 4.23029 17.7972 5.1962 17.7972 6.20336V7.07836H10.2022V6.20336ZM22.9685 24.609C22.7076 24.9175 22.3827 25.1654 22.0162 25.3354C21.6497 25.5054 21.2506 25.5934 20.8466 25.5934H7.15285C6.74901 25.594 6.34991 25.5063 5.98344 25.3367C5.61697 25.167 5.29197 24.9194 5.03115 24.611C4.77033 24.3027 4.57998 23.9412 4.4734 23.5516C4.36682 23.1621 4.34658 22.754 4.4141 22.3559L6.56222 9.50211C6.61348 9.19234 6.77409 8.91121 7.0149 8.70973C7.25571 8.50825 7.56077 8.39977 7.87472 8.40399H8.88535V10.3115C8.88535 10.4855 8.95449 10.6525 9.07756 10.7755C9.20063 10.8986 9.36755 10.9677 9.5416 10.9677C9.71565 10.9677 9.88257 10.8986 10.0056 10.7755C10.1287 10.6525 10.1978 10.4855 10.1978 10.3115V8.40399H17.7972V10.3115C17.7972 10.4855 17.8664 10.6525 17.9894 10.7755C18.1125 10.8986 18.2794 10.9677 18.4535 10.9677C18.6275 10.9677 18.7944 10.8986 18.9175 10.7755C19.0406 10.6525 19.1097 10.4855 19.1097 10.3115V8.40399H20.1247C20.4387 8.39977 20.7437 8.50825 20.9846 8.70973C21.2254 8.91121 21.386 9.19234 21.4372 9.50211L23.5854 22.3559C23.652 22.7537 23.6313 23.1612 23.5248 23.5503C23.4183 23.9393 23.2285 24.3006 22.9685 24.609Z" fill="currentColor"/>
	</symbol>

	<symbol viewBox="0 0 29 58" id="arrow-prev">
		<path d="M28 3L28 55L2 29L28 3Z" stroke="currentColor" stroke-width="2" fill="none"/>
	</symbol>

	<symbol viewBox="0 0 29 58" id="arrow-next">
		<path d="M1 55V3L27 29L1 55Z" stroke="currentColor" stroke-width="2" fill="none"/>	
	</symbol>

	<symbol viewBox="0 0 29 58" id="arrow-prev-filled">
		<path d="M28 3L28 55L2 29L28 3Z" stroke="currentColor" stroke-width="2" fill="currentColor"/>
	</symbol>

	<symbol viewBox="0 0 29 58" id="arrow-next-filled">
		<path d="M1 55V3L27 29L1 55Z" stroke="currentColor" stroke-width="2" fill="currentColor"/>	
	</symbol>

	<symbol viewBox="0 0 25 25" id="email">
		<path d="M16.1987 13.5371L14.1049 15.638C13.2559 16.49 11.7619 16.5084 10.8945 15.638L8.80059 13.5371L1.28027 21.0818C1.56021 21.2113 1.86885 21.2885 2.19697 21.2885H22.8024C23.1306 21.2885 23.4391 21.2114 23.7189 21.0819L16.1987 13.5371Z" fill="currentColor"/>
		<path d="M22.8023 3.71094H2.19687C1.86875 3.71094 1.56011 3.78818 1.28027 3.91763L9.31626 11.9803C9.3168 11.9808 9.31743 11.9809 9.31797 11.9814C9.31851 11.982 9.3186 11.9827 9.3186 11.9827L11.9315 14.6043C12.2091 14.8818 12.7902 14.8818 13.0678 14.6043L15.6802 11.9832C15.6802 11.9832 15.6808 11.982 15.6813 11.9814C15.6813 11.9814 15.6825 11.9808 15.6831 11.9803L23.7188 3.91758C23.439 3.78809 23.1305 3.71094 22.8023 3.71094Z" fill="currentColor"/>
		<path d="M0.233691 4.94141C0.0888672 5.23428 0 5.55938 0 5.90762V19.0912C0 19.4395 0.0887695 19.7646 0.233643 20.0574L7.76699 12.4997L0.233691 4.94141Z" fill="currentColor"/>
		<path d="M24.7666 4.94141L17.2334 12.4998L24.7666 20.0576C24.9115 19.7647 25.0003 19.4396 25.0003 19.0913V5.90771C25.0003 5.55938 24.9115 5.23428 24.7666 4.94141Z" fill="currentColor"/>	
	</symbol>

	<symbol viewBox="0 0 40 40" id="instagram">
		<path d="M20 11.8072C22.6506 11.8072 23.0121 11.8072 24.0964 11.8072C25.0602 11.8072 25.5422 12.0482 25.9036 12.1687C26.3855 12.4096 26.747 12.5301 27.1084 12.8916C27.4699 13.253 27.7108 13.6145 27.8313 14.0964C27.9518 14.4578 28.0723 14.9398 28.1928 15.9036C28.1928 16.988 28.1928 17.2289 28.1928 20C28.1928 22.7711 28.1928 23.0121 28.1928 24.0964C28.1928 25.0602 27.9518 25.5422 27.8313 25.9036C27.5904 26.3855 27.4699 26.747 27.1084 27.1084C26.747 27.4699 26.3855 27.7108 25.9036 27.8313C25.5422 27.9518 25.0602 28.0723 24.0964 28.1928C23.0121 28.1928 22.7711 28.1928 20 28.1928C17.2289 28.1928 16.988 28.1928 15.9036 28.1928C14.9398 28.1928 14.4578 27.9518 14.0964 27.8313C13.6145 27.5904 13.253 27.4699 12.8916 27.1084C12.5301 26.747 12.2892 26.3855 12.1687 25.9036C12.0482 25.5422 11.9277 25.0602 11.8072 24.0964C11.8072 23.0121 11.8072 22.7711 11.8072 20C11.8072 17.2289 11.8072 16.988 11.8072 15.9036C11.8072 14.9398 12.0482 14.4578 12.1687 14.0964C12.4096 13.6145 12.5301 13.253 12.8916 12.8916C13.253 12.5301 13.6145 12.2892 14.0964 12.1687C14.4578 12.0482 14.9398 11.9277 15.9036 11.8072C16.988 11.8072 17.3494 11.8072 20 11.8072ZM20 10C17.2289 10 16.988 10 15.9036 10C14.8193 10 14.0964 10.241 13.494 10.4819C12.8916 10.7229 12.2892 11.0843 11.6867 11.6867C11.0843 12.2892 10.8434 12.7711 10.4819 13.494C10.241 14.0964 10.1205 14.8193 10 15.9036C10 16.988 10 17.3494 10 20C10 22.7711 10 23.0121 10 24.0964C10 25.1807 10.241 25.9036 10.4819 26.506C10.7229 27.1084 11.0843 27.7108 11.6867 28.3133C12.2892 28.9157 12.7711 29.1566 13.494 29.5181C14.0964 29.759 14.8193 29.8795 15.9036 30C16.988 30 17.3494 30 20 30C22.6506 30 23.0121 30 24.0964 30C25.1807 30 25.9036 29.759 26.506 29.5181C27.1084 29.2771 27.7108 28.9157 28.3133 28.3133C28.9157 27.7108 29.1566 27.2289 29.5181 26.506C29.759 25.9036 29.8795 25.1807 30 24.0964C30 23.0121 30 22.6506 30 20C30 17.3494 30 16.988 30 15.9036C30 14.8193 29.759 14.0964 29.5181 13.494C29.2771 12.8916 28.9157 12.2892 28.3133 11.6867C27.7108 11.0843 27.2289 10.8434 26.506 10.4819C25.9036 10.241 25.1807 10.1205 24.0964 10C23.0121 10 22.7711 10 20 10Z" fill="currentColor"/>
		<path d="M20 14.8193C17.1084 14.8193 14.8193 17.1084 14.8193 20C14.8193 22.8916 17.1084 25.1807 20 25.1807C22.8916 25.1807 25.1807 22.8916 25.1807 20C25.1807 17.1084 22.8916 14.8193 20 14.8193ZM20 23.3735C18.1928 23.3735 16.6265 21.9277 16.6265 20C16.6265 18.1928 18.0723 16.6265 20 16.6265C21.8072 16.6265 23.3735 18.0723 23.3735 20C23.3735 21.8072 21.8072 23.3735 20 23.3735Z" fill="currentColor"/>
		<path d="M25.3012 15.9036C25.9666 15.9036 26.506 15.3642 26.506 14.6988C26.506 14.0334 25.9666 13.494 25.3012 13.494C24.6358 13.494 24.0964 14.0334 24.0964 14.6988C24.0964 15.3642 24.6358 15.9036 25.3012 15.9036Z" fill="currentColor"/>
	</symbol>

	<symbol viewBox="0 0 40 40" id="twitter">
		<path d="M30.6 14.9C29.9 15.2 29.1 15.4 28.3 15.5C29.1 15 29.8 14.2 30.1 13.3C29.3 13.8 28.5 14.1 27.5 14.3C26.8 13.5 25.7 13 24.6 13C22.4 13 20.6 14.8 20.6 17C20.6 17.3 20.6 17.6 20.7 17.9C17.4 17.7 14.4 16.1 12.4 13.7C12.1 14.3 11.9 15 11.9 15.7C11.9 17.1 12.6 18.3 13.7 19C13 19 12.4 18.8 11.9 18.5C11.9 20.4 13.3 22.1 15.1 22.4C14.8 22.5 14.4 22.5 14 22.5C13.7 22.5 13.5 22.5 13.2 22.4C13.7 24 15.2 25.2 17 25.2C15.6 26.3 13.9 26.9 12 26.9C11.7 26.9 11.4 26.9 11 26.8C12.8 27.9 14.9 28.6 17.2 28.6C24.6 28.6 28.6 22.5 28.6 17.2V16.7C29.4 16.4 30.1 15.7 30.6 14.9Z" fill="currentColor"/>
	</symbol>

	<symbol viewBox="0 0 40 40" id="facebook">
		<path d="M21.6571 20.3648H25.3793L25.9637 16.5605H21.6563V14.4813C21.6563 12.901 22.1696 11.4996 23.6389 11.4996H26V8.17974C25.5852 8.12338 24.7078 8 23.05 8C19.5882 8 17.5587 9.8393 17.5587 14.0297V16.5605H14V20.3648H17.5587V30.821C18.2634 30.9276 18.9773 31 19.7101 31C20.3724 31 21.0189 30.9391 21.6571 30.8522V20.3648Z" fill="currentColor"/>
	</symbol>

	<symbol viewBox="0 0 24 24" id="telegram">
		<path fill-rule="evenodd" clip-rule="evenodd" d="M15.6666 17.9406C16.5053 18.3075 16.8199 17.5387 16.8199 17.5387L19.0391 6.39021C19.0216 5.63883 18.0081 6.09315 18.0081 6.09315L5.58403 10.9684C5.58403 10.9684 4.98992 11.1781 5.04234 11.5451C5.09476 11.912 5.56656 12.0868 5.56656 12.0868L8.69442 13.1352C8.69442 13.1352 9.63802 16.2281 9.83023 16.8222C10.005 17.3989 10.1622 17.4163 10.1622 17.4163C10.337 17.4862 10.4942 17.3639 10.4942 17.3639L12.5212 15.5291L15.6666 17.9406ZM16.2079 8.36649C16.2079 8.36649 16.6448 8.10438 16.6273 8.36649C16.6273 8.36649 16.6972 8.40144 16.47 8.64608C16.2603 8.85577 11.3152 13.2942 10.6512 13.8883C10.5987 13.9232 10.5638 13.9757 10.5638 14.0456L10.3716 15.6881C10.3366 15.8629 10.1095 15.8803 10.057 15.7231L9.23576 13.0321C9.20081 12.9272 9.23576 12.8049 9.34061 12.735L16.2079 8.36649Z" fill="currentColor"/>
	</symbol>

	<symbol viewBox="0 0 15 30" id="send-arrow">
		<path d="M1 27V3L13 15L1 27Z" stroke="currentColor" fill="none" stroke-width="2"/>	
	</symbol>

	<symbol viewBox="0 0 15 30" id="send-arrow-filled">
		<path d="M1 27V3L13 15L1 27Z" stroke="currentColor" fill="currentColor" stroke-width="2"/>	
	</symbol>

	<symbol viewBox="0 0 20 20" id="star">
		<path d="M18.9591 7.70072C18.9107 7.55639 18.8234 7.42824 18.7068 7.33041C18.5901 7.23258 18.4487 7.16888 18.2982 7.14633L13.0253 6.34078L10.659 1.3009C10.5923 1.15896 10.4866 1.03895 10.3542 0.95488C10.2218 0.870814 10.0682 0.826172 9.91132 0.826172C9.75448 0.826172 9.60088 0.870814 9.46847 0.95488C9.33606 1.03895 9.23032 1.15896 9.1636 1.3009L6.79733 6.34078L1.52446 7.14633C1.37427 7.16923 1.23331 7.23309 1.11706 7.33089C1.0008 7.4287 0.913772 7.55667 0.865525 7.70072C0.817278 7.84478 0.809685 7.99935 0.843581 8.14745C0.877476 8.29554 0.951549 8.43142 1.05765 8.54015L4.90035 12.4746L3.99152 18.0416C3.96672 18.1943 3.98534 18.351 4.04524 18.4937C4.10515 18.6364 4.20394 18.7595 4.33036 18.8488C4.45678 18.9381 4.60574 18.9901 4.76028 18.9988C4.91481 19.0076 5.06869 18.9728 5.2044 18.8983L9.91379 16.2974L14.6232 18.8983C14.7589 18.9734 14.913 19.0088 15.0678 19.0004C15.2227 18.992 15.3721 18.9402 15.4988 18.8509C15.6256 18.7616 15.7247 18.6384 15.7848 18.4954C15.8449 18.3524 15.8635 18.1954 15.8385 18.0424L14.9297 12.4754L18.7699 8.54015C18.8755 8.43111 18.9491 8.29509 18.9824 8.14701C19.0158 7.99893 19.0078 7.84452 18.9591 7.70072Z" fill="currentColor"/>
	</symbol>

	<symbol viewBox="0 0 16 16" id="close">
		<path d="M16 1.25708L14.7429 0L8 6.74318L1.25708 0L0 1.25708L6.74292 8L0 14.7429L1.25708 16L8 9.25708L14.7429 16L16 14.7429L9.25708 8L16 1.25708Z" fill="currentColor"/>
	</symbol>

	<symbol viewBox="0 0 19 19" id="delivery">
		<path d="M18.8433 9.49154L15.6501 6.19218C15.5453 6.08382 15.4009 6.02266 15.2501 6.02266H13.2096V3.62109C13.2096 3.31368 12.9604 3.06445 12.653 3.06445H2.3141C2.00669 3.06445 1.75746 3.31368 1.75746 3.62109V5.29154H1.33612C1.02871 5.29154 0.779482 5.54076 0.779482 5.84818C0.779482 6.15559 1.02871 6.40482 1.33612 6.40482H1.75746V7.51862H0.556641C0.249227 7.51862 0 7.76784 0 8.07526C0 8.38267 0.249227 8.6319 0.556641 8.6319H1.75746V13.744C1.75746 14.0514 2.00669 14.3006 2.3141 14.3006H3.49897C3.60688 14.6598 3.80256 14.989 4.07524 15.2617C4.50949 15.696 5.08688 15.9351 5.701 15.9351C6.31512 15.9351 6.89247 15.696 7.32676 15.2617C7.60271 14.9857 7.79338 14.6564 7.89944 14.3067H13.2152C13.3212 14.6564 13.5119 14.9857 13.7878 15.2617C14.2221 15.696 14.7995 15.9351 15.4136 15.9351C16.0277 15.9351 16.6051 15.696 17.0394 15.2617C17.3153 14.9857 17.506 14.6564 17.612 14.3067H18.4434C18.7508 14.3067 19 14.0575 19 13.7501V9.87866C19 9.73416 18.9438 9.59537 18.8433 9.49154ZM17.13 9.32202H13.194V7.13595H15.0142L17.13 9.32202ZM2.87074 8.63186H5.76798C6.0754 8.63186 6.32463 8.38264 6.32463 8.07522C6.32463 7.76781 6.0754 7.51858 5.76798 7.51858H2.87074V6.40478H6.1763C6.48371 6.40478 6.73294 6.15555 6.73294 5.84814C6.73294 5.54072 6.48371 5.2915 6.1763 5.2915H2.87074V4.1777H6.1763H12.0963L12.0807 13.1934H7.9564C7.87197 12.7595 7.66212 12.3454 7.32676 12.01C6.89251 11.5757 6.31512 11.3366 5.701 11.3366C5.08688 11.3366 4.50953 11.5757 4.07524 12.01C3.74868 12.3366 3.53252 12.7441 3.44535 13.1873H2.87074V8.63186ZM6.53956 14.4745C6.31557 14.6985 6.01773 14.8218 5.701 14.8218C5.38427 14.8218 5.08643 14.6985 4.86244 14.4745C4.63845 14.2505 4.5151 13.9526 4.5151 13.6359C4.5151 13.3191 4.63845 13.0212 4.86244 12.7972C5.08643 12.5732 5.38427 12.4499 5.701 12.4499C6.01773 12.4499 6.31557 12.5732 6.53956 12.7972C7.00195 13.2597 7.00195 14.0121 6.53956 14.4745ZM16.2521 14.4745C16.0281 14.6985 15.7303 14.8218 15.4135 14.8218C15.0968 14.8218 14.799 14.6985 14.575 14.4745C14.1126 14.0121 14.1126 13.2597 14.575 12.7973C14.799 12.5733 15.0968 12.4499 15.4135 12.4499C15.7303 12.4499 16.0281 12.5733 16.2521 12.7973C16.4761 13.0213 16.5994 13.3191 16.5994 13.6359C16.5994 13.9526 16.4761 14.2505 16.2521 14.4745ZM17.669 13.1934C17.5845 12.7595 17.3747 12.3454 17.0393 12.01C16.605 11.5757 16.0277 11.3366 15.4135 11.3366C14.7994 11.3366 14.2221 11.5757 13.7878 12.01C13.4921 12.3058 13.2945 12.6628 13.1939 13.0405V10.4353H17.8867V13.1934H17.669Z" fill="currentColor"/>
	</symbol>

	<symbol viewBox="0 0 17 17" id="filter">
		<path d="M14.5212 11.3333V12.75C14.5212 13.2196 14.3346 13.6701 14.0025 14.0022C13.6704 14.3343 13.22 14.5208 12.7503 14.5208H11.3337C10.864 14.5208 10.4136 14.3343 10.0815 14.0022C9.7494 13.6701 9.56283 13.2196 9.56283 12.75V12.3958H2.83366C2.73973 12.3958 2.64965 12.3585 2.58323 12.2921C2.51681 12.2257 2.47949 12.1356 2.47949 12.0417C2.47949 11.9477 2.51681 11.8576 2.58323 11.7912C2.64965 11.7248 2.73973 11.6875 2.83366 11.6875H9.56283V11.3333C9.56283 10.8637 9.7494 10.4133 10.0815 10.0811C10.4136 9.74907 10.864 9.5625 11.3337 9.5625H12.7503C13.22 9.5625 13.6704 9.74907 14.0025 10.0811C14.3346 10.4133 14.5212 10.8637 14.5212 11.3333Z" fill="currentColor"/>
		<path d="M14.5212 4.95768C14.5212 5.05161 14.4838 5.14171 14.4174 5.20813C14.351 5.27455 14.2609 5.31185 14.167 5.31185H7.43783V5.66602C7.43783 6.13567 7.25125 6.58608 6.91916 6.91818C6.58706 7.25027 6.13665 7.43685 5.66699 7.43685H4.25033C3.78067 7.43685 3.33026 7.25027 2.99816 6.91818C2.66607 6.58608 2.47949 6.13567 2.47949 5.66602V4.24935C2.47949 3.7797 2.66607 3.32928 2.99816 2.99719C3.33026 2.66509 3.78067 2.47852 4.25033 2.47852H5.66699C6.13665 2.47852 6.58706 2.66509 6.91916 2.99719C7.25125 3.32928 7.43783 3.7797 7.43783 4.24935V4.60352H14.167C14.2609 4.60352 14.351 4.64082 14.4174 4.70723C14.4838 4.77365 14.5212 4.86375 14.5212 4.95768Z" fill="currentColor"/>
	</symbol>

	<symbol viewBox="0 0 11 18" id="arrow-prev-2">
		<path d="M11 2.12252L4.19824 9L11 15.8775L8.90091 18L3.93402e-07 9L8.90091 -9.1754e-08L11 2.12252Z" fill="currentColor"/>
	</symbol>

	<symbol viewBox="0 0 11 18" id="arrow-next-2">
		<path d="M-6.94027e-07 2.12252L6.80176 9L-9.27785e-08 15.8775L2.09909 18L11 9L2.09909 -9.1754e-08L-6.94027e-07 2.12252Z" fill="currentColor"/>	
	</symbol>

	<symbol viewBox="0 0 26 26" id="viber-accent">
		<path d="M25.082 15.0494C25.8577 8.52018 24.7093 4.3981 22.638 2.53368L22.6391 2.5326C19.2959 -0.651316 8.0054 -1.12257 4.00573 2.6756C2.20957 4.53352 1.5769 7.26027 1.50757 10.6359C1.43823 14.0127 1.3559 20.3383 7.25032 22.0543H7.25573L7.25032 24.6749C7.25032 24.6749 7.21023 25.7365 7.8884 25.9499C8.66407 26.2013 9.01507 25.7084 11.4276 22.8267C15.462 23.1766 18.5603 22.3749 18.9124 22.2579C19.7271 21.9849 24.3367 21.375 25.082 15.0494ZM11.8252 20.9829C11.8252 20.9829 9.27182 24.1668 8.47773 24.9934C8.21773 25.262 7.93282 25.2371 7.93715 24.7041C7.93715 24.3542 7.95665 20.3534 7.95665 20.3534C2.95923 18.9213 3.2539 13.5349 3.30807 10.7172C3.36223 7.89835 3.8779 5.58977 5.3989 4.03518C8.90782 0.745101 18.8062 1.48068 21.3282 3.85102C24.4114 6.58427 23.314 14.3063 23.3205 14.5695C22.6867 19.8497 18.9514 20.1844 18.2646 20.413C17.971 20.5105 15.2464 21.2114 11.8252 20.9829Z" fill="#613887"/>
		<path d="M13.2347 4.65625C12.8176 4.65625 12.8176 5.30625 13.2347 5.31167C16.4706 5.33658 19.1356 7.59208 19.1649 11.7293C19.1649 12.1659 19.804 12.1605 19.7986 11.7239H19.7975C19.7629 7.266 16.853 4.68117 13.2347 4.65625Z" fill="#613887"/>
		<path d="M17.4967 11.0415C17.487 11.4726 18.125 11.4932 18.1305 11.0566C18.1835 8.59856 16.668 6.57381 13.8199 6.3604C13.4028 6.33006 13.3594 6.98548 13.7754 7.01581C16.2455 7.20323 17.5465 8.8889 17.4967 11.0415Z" fill="#613887"/>
		<path d="M16.8082 13.8349C16.273 13.525 15.7281 13.7179 15.5028 14.0223L15.0315 14.6322C14.7921 14.942 14.3447 14.9009 14.3447 14.9009C11.0795 14.0375 10.2064 10.6206 10.2064 10.6206C10.2064 10.6206 10.1663 10.158 10.4653 9.90995L11.0546 9.42245C11.3493 9.18845 11.5356 8.62512 11.2355 8.07154C10.4339 6.62312 9.89546 6.1237 9.62138 5.7402C9.33321 5.37945 8.89988 5.2982 8.44922 5.54195H8.43947C7.50238 6.09012 6.47647 7.11604 6.80472 8.17229C7.3648 9.28595 8.39397 12.836 11.6743 15.5184C13.2159 16.787 15.6555 18.087 16.6912 18.387L16.701 18.4022C17.7215 18.7424 18.7138 17.6764 19.2435 16.7111V16.7035C19.4786 16.2366 19.4006 15.7946 19.0572 15.5054C18.4484 14.9117 17.5297 14.2563 16.8082 13.8349Z" fill="#613887"/>
		<path d="M14.2626 8.78111C15.3036 8.84178 15.8085 9.38561 15.8626 10.5025C15.8821 10.9391 16.5159 10.9088 16.4964 10.4722C16.4271 9.01403 15.6666 8.20153 14.2972 8.12569C13.8801 8.10078 13.8411 8.7562 14.2626 8.78111Z" fill="#613887"/>
	</symbol>

	<symbol viewBox="0 0 26 26" id="whatsapp-accent">
		<path d="M12.37 0.0150361C5.50339 0.341983 0.084698 6.06051 0.105529 12.9349C0.111871 15.0286 0.617339 17.0048 1.50901 18.751L0.139977 25.3965C0.0659194 25.7559 0.39013 26.0707 0.747235 25.9861L7.259 24.4434C8.93198 25.2767 10.8111 25.758 12.7998 25.7884C19.8181 25.8956 25.6701 20.3229 25.8889 13.3072C26.1234 5.78685 19.9166 -0.344369 12.37 0.0150361ZM20.1399 20.0345C18.2329 21.9415 15.6973 22.9917 13.0004 22.9917C11.4213 22.9917 9.9094 22.6374 8.50666 21.9387L7.59982 21.487L3.60743 22.4329L4.44781 18.3534L4.00104 17.4785C3.27284 16.0524 2.90361 14.5102 2.90361 12.8949C2.90361 10.198 3.95384 7.66247 5.86087 5.75539C7.75085 3.8654 10.3278 2.79807 13.0006 2.79807C15.6975 2.79813 18.2329 3.84836 20.14 5.75533C22.047 7.66235 23.0972 10.1978 23.0973 12.8947C23.0972 15.5677 22.0299 18.1446 20.1399 20.0345Z" fill="#3EA745"/>
		<path d="M19.2592 15.6918L16.7614 14.9746C16.433 14.8803 16.0794 14.9735 15.8402 15.2173L15.2294 15.8396C14.9718 16.102 14.581 16.1863 14.2401 16.0484C13.0586 15.5702 10.5731 13.3603 9.93832 12.2549C9.7552 11.9361 9.78548 11.5374 10.0103 11.2465L10.5436 10.5566C10.7525 10.2863 10.7966 9.92328 10.6584 9.61082L9.60758 7.23408C9.35587 6.66482 8.62842 6.49911 8.15317 6.90104C7.45606 7.49064 6.62893 8.38661 6.52838 9.3792C6.3511 11.1292 7.10163 13.3353 9.93975 15.9842C13.2185 19.0444 15.8442 19.4487 17.5537 19.0346C18.5234 18.7997 19.2983 17.8582 19.7873 17.0873C20.1207 16.5616 19.8575 15.8636 19.2592 15.6918Z" fill="#3EA745"/>
	</symbol>

	<symbol viewBox="0 0 26 26" id="telegram-accent">
		<path d="M10.2019 16.4478L9.77186 22.4972C10.3872 22.4972 10.6537 22.2328 10.9733 21.9154L13.8582 19.1583L19.836 23.5361C20.9324 24.1471 21.7048 23.8253 22.0005 22.5275L25.9244 4.14116L25.9254 4.14007C26.2732 2.51941 25.3394 1.88566 24.2712 2.28324L1.20703 11.1135C-0.367057 11.7245 -0.343224 12.602 0.939443 12.9996L6.83603 14.8337L20.5326 6.26341C21.1772 5.83658 21.7633 6.07274 21.2812 6.49958L10.2019 16.4478Z" fill="#0088CC"/>
	</symbol>

	<symbol viewBox="0 0 14 14" id="edit">
		<path d="M8.64576 2.35156L0.942758 10.0551C0.904005 10.094 0.876022 10.1431 0.862697 10.1958L0.00889325 13.6228C-0.0166465 13.726 0.0136681 13.8357 0.0889547 13.9109C0.145919 13.9679 0.223538 13.9994 0.302933 13.9994C0.327251 13.9994 0.352125 13.9965 0.376332 13.9903L3.80332 13.1364C3.85673 13.1231 3.90525 13.0952 3.94401 13.0565L11.6477 5.35348L8.64576 2.35156Z" fill="currentColor" fill-opacity="0.29"/>
		<path d="M13.5561 1.3027L12.6986 0.445234C12.1255 -0.127855 11.1267 -0.1273 10.5543 0.445234L9.50391 1.49558L12.5057 4.49739L13.5561 3.44704C13.8423 3.16088 14 2.78001 14 2.37493C14 1.96984 13.8423 1.58897 13.5561 1.3027Z" fill="currentColor" fill-opacity="0.29"/>
	</symbol>

	<symbol viewBox="0 0 22 22" id="status-completed">
		<path d="M11 0C4.92486 0 0 4.92486 0 11C0 17.0751 4.92486 22 11 22C17.0751 22 22 17.0751 22 11C21.9935 4.92758 17.0724 0.00649135 11 0ZM11 20.4285C5.79272 20.4285 1.57141 16.2072 1.57141 11C1.57141 5.79272 5.79272 1.57141 11 1.57141C16.2072 1.57141 20.4285 5.79272 20.4285 11C20.4229 16.2049 16.2049 20.4229 11 20.4285Z" fill="#89C179"/>
		<path d="M17.0347 6.51744C16.7302 6.22335 16.2475 6.22335 15.943 6.51744L8.64135 13.8191L6.05397 11.2317C5.75252 10.9195 5.25508 10.9109 4.94299 11.2124C4.63085 11.5138 4.62224 12.0113 4.9237 12.3234C4.93 12.3299 4.93645 12.3364 4.94299 12.3427L8.08586 15.4855C8.39265 15.7923 8.89005 15.7923 9.19684 15.4855L17.054 7.62838C17.3555 7.31629 17.3468 6.8189 17.0347 6.51744Z" fill="#89C179"/>
	</symbol>

	<symbol viewBox="0 0 22 22" id="status-in-progress">
		<path d="M11 0C4.93471 0 0 4.93471 0 11C0 17.0653 4.93471 22 11 22C17.0653 22 22 17.0653 22 11C22 4.93471 17.0653 0 11 0ZM11 20.625C5.69268 20.625 1.37501 16.3073 1.37501 11C1.37501 5.69268 5.69268 1.37501 11 1.37501C16.3073 1.37501 20.625 5.69268 20.625 11C20.625 16.3073 16.3073 20.625 11 20.625Z" fill="#E0C04D"/>
		<path d="M11.6875 4.125H10.3125V11.2847L14.6389 15.6111L15.6111 14.6389L11.6875 10.7153V4.125Z" fill="#E0C04D"/>
	</symbol>

	<symbol viewBox="0 0 22 22" id="status-canceled">
		<path fill-rule="evenodd" clip-rule="evenodd" d="M11 20.5C16.2467 20.5 20.5 16.2467 20.5 11C20.5 5.75329 16.2467 1.5 11 1.5C5.75329 1.5 1.5 5.75329 1.5 11C1.5 16.2467 5.75329 20.5 11 20.5ZM11 22C17.0751 22 22 17.0751 22 11C22 4.92487 17.0751 0 11 0C4.92487 0 0 4.92487 0 11C0 17.0751 4.92487 22 11 22Z" fill="#C17979"/>
		<path d="M11.5858 11.0026L15.8724 6.71601C16.0378 6.55623 16.0424 6.29259 15.8826 6.12715C15.7229 5.9617 15.4592 5.95712 15.2938 6.1169C15.2903 6.12024 15.2869 6.12366 15.2835 6.12715L10.9969 10.4137L6.71032 6.12712C6.54487 5.96734 6.28124 5.97193 6.12145 6.13737C5.96557 6.29877 5.96557 6.55462 6.12145 6.71601L10.408 11.0026L6.12145 15.2892C5.95886 15.4518 5.95886 15.7154 6.12145 15.8781C6.28407 16.0406 6.5477 16.0406 6.71032 15.8781L10.9969 11.5915L15.2835 15.8781C15.449 16.0378 15.7126 16.0333 15.8724 15.8678C16.0282 15.7064 16.0282 15.4506 15.8724 15.2892L11.5858 11.0026Z" fill="#C17979"/>
	</symbol>

	<symbol viewBox="0 0 22 22" id="swap">
		<path d="M4.23046 9.03584L4.23025 9.03562L0.352319 5.15813L4.23025 1.28063L4.23046 1.28041C4.36143 1.14924 4.57607 1.14924 4.70704 1.28041L4.70724 1.28061L5.59626 2.16964L5.59646 2.16983C5.72764 2.3008 5.72764 2.51545 5.59646 2.64642L5.59626 2.64661L4.70724 3.53564L4.10975 4.13313H4.95473H17.1875C19.6479 4.13313 21.65 6.13518 21.65 8.59563C21.65 8.9708 21.3439 9.27688 20.9688 9.27688H20.2812C19.9061 9.27688 19.6 8.9708 19.6 8.59563C19.6 7.26494 18.5182 6.18313 17.1875 6.18313H4.95473H4.10975L4.70724 6.78061L5.59626 7.66964L5.59646 7.66984C5.72764 7.8008 5.72764 8.01545 5.59646 8.14642L5.59626 8.14662L4.70724 9.03564L4.70704 9.03584C4.57607 9.16701 4.36143 9.16701 4.23046 9.03584ZM0.348021 5.15383L0.344126 5.15772L0.34843 5.15424L0.348021 5.15383Z" fill="#926252" stroke="#F8F8F8" stroke-width="0.7"/>
		<path d="M17.7695 12.966L17.7698 12.9663L21.6477 16.8437L17.7698 20.7212L17.7697 20.7213C17.6383 20.8527 17.4242 20.8527 17.2928 20.7213L16.4037 19.8322C16.2715 19.7 16.2716 19.4874 16.4037 19.3553L17.2928 18.4662L17.8902 17.8687H17.0453H4.8125C2.35205 17.8687 0.35 15.8667 0.35 13.4062C0.35 13.0311 0.656073 12.725 1.03125 12.725H1.71875C2.09393 12.725 2.4 13.0311 2.4 13.4062C2.4 14.7369 3.48182 15.8187 4.8125 15.8187H17.0453H17.8902L17.2928 15.2213L16.4037 14.3322C16.2715 14.2 16.2716 13.9874 16.4037 13.8553L17.2928 12.9662C17.4243 12.8347 17.6387 12.835 17.7695 12.966Z" fill="#926252" stroke="#F8F8F8" stroke-width="0.7"/>
	</symbol>

	<symbol viewBox="0 0 26 26" id="archive">
		<path d="M1.29266 8.59766V24.378C1.29266 24.919 1.74353 25.3399 2.25451 25.3399H23.7158C24.2568 25.3399 24.6776 24.889 24.6776 24.378V8.59766H1.29266ZM17.8545 14.6393C17.8545 15.1803 17.4036 15.6011 16.8927 15.6011H9.07763C8.53659 15.6011 8.11579 15.1503 8.11579 14.6393V12.6855C8.11579 12.1445 8.56665 11.7237 9.07763 11.7237H16.8927C17.4337 11.7237 17.8545 12.1745 17.8545 12.6855V14.6393Z" fill="currentColor"/>
		<path d="M25.0081 0.660156H0.96185C0.420809 0.660156 0 1.11102 0 1.62201V7.30293H26V1.65206C25.9699 1.11102 25.5491 0.660156 25.0081 0.660156Z" fill="currentColor"/>
	</symbol>

	<symbol viewBox="0 0 20 20" id="share">
		<path d="M7.12565 6.07348L9.06076 4.13836V14.375C9.06076 14.6237 9.15953 14.8621 9.33535 15.038C9.51116 15.2138 9.74962 15.3126 9.99826 15.3126C10.2469 15.3126 10.4854 15.2138 10.6612 15.038C10.837 14.8621 10.9358 14.6237 10.9358 14.375V4.13836L12.8709 6.07348C12.9578 6.16092 13.0612 6.23035 13.1751 6.27777C13.2889 6.3252 13.411 6.3497 13.5343 6.34987C13.6576 6.35004 13.7798 6.32587 13.8938 6.27875C14.0077 6.23163 14.1113 6.16249 14.1985 6.07528C14.2857 5.98808 14.3548 5.88452 14.402 5.77055C14.4491 5.65657 14.4733 5.53442 14.4731 5.41109C14.4729 5.28777 14.4484 5.16568 14.401 5.05184C14.3536 4.93799 14.2841 4.83462 14.1967 4.74766L10.6612 1.2121C10.5741 1.12504 10.4708 1.05598 10.357 1.00887C10.2433 0.961751 10.1214 0.9375 9.99826 0.9375C9.87514 0.9375 9.75323 0.961751 9.63948 1.00887C9.52574 1.05598 9.42239 1.12504 9.33533 1.2121L5.79983 4.74766C5.71239 4.83462 5.64296 4.93799 5.59553 5.05184C5.54811 5.16568 5.52361 5.28777 5.52344 5.41109C5.52327 5.53442 5.54744 5.65657 5.59456 5.77055C5.64168 5.88452 5.71082 5.98808 5.79802 6.07528C5.88523 6.16249 5.98879 6.23163 6.10276 6.27875C6.21673 6.32587 6.33888 6.35004 6.46221 6.34987C6.58554 6.3497 6.70762 6.3252 6.82147 6.27777C6.93531 6.23035 7.03868 6.16092 7.12565 6.07348Z" fill="currentColor"/>
		<path d="M18.125 9.0625C17.8764 9.0625 17.6379 9.16127 17.4621 9.33709C17.2863 9.5129 17.1875 9.75136 17.1875 10V17.1875H2.8125V10C2.8125 9.75136 2.71373 9.5129 2.53791 9.33709C2.3621 9.16127 2.12364 9.0625 1.875 9.0625C1.62636 9.0625 1.3879 9.16127 1.21209 9.33709C1.03627 9.5129 0.9375 9.75136 0.9375 10V17.5C0.9375 17.9144 1.10212 18.3118 1.39515 18.6049C1.68817 18.8979 2.0856 19.0625 2.5 19.0625H17.5C17.9144 19.0625 18.3118 18.8979 18.6049 18.6049C18.8979 18.3118 19.0625 17.9144 19.0625 17.5V10C19.0625 9.75136 18.9637 9.5129 18.7879 9.33709C18.6121 9.16127 18.3736 9.0625 18.125 9.0625Z" fill="currentColor"/>
	</symbol>

	<symbol viewBox="0 0 11 20" id="arrow-prev-3">
		<path d="M9.95605 0.769531L0.873659 9.85193L9.95605 18.9343" stroke="currentColor" fill="none"/>	
	</symbol>

	<symbol viewBox="0 0 12 20" id="arrow-next-3">
		<path d="M1.26465 0.769531L10.347 9.85193L1.26465 18.9343" stroke="currentColor" fill="none"/>
	</symbol>

	<symbol viewBox="0 0 96 72" id="quote">
		<path d="M20.8397 42.9997C15.6557 42.9997 10.9517 41.2717 6.72772 37.8157C2.31172 34.3597 0.103718 29.5597 0.103717 23.4157C0.103717 17.2717 2.11971 12.1837 6.15171 8.15173C10.1837 4.31173 15.4637 2.39173 21.9917 2.39173C28.7117 2.39173 34.1837 4.59972 38.4077 9.01572C42.4397 13.6237 44.4557 19.5757 44.4557 26.8717C44.4557 33.9757 42.7277 40.5997 39.2717 46.7437C35.8157 53.0797 30.8237 60.2797 24.2957 68.3437C22.7597 70.4557 20.8397 71.5117 18.5357 71.5117C16.8077 71.5117 15.2717 70.9357 13.9277 69.7837C12.5837 68.8237 11.9117 67.4797 11.9117 65.7517C11.9117 64.0237 12.6797 62.1997 14.2157 60.2797C15.3677 58.5517 16.8077 56.8237 18.5357 55.0957C19.1117 54.3277 20.4557 52.5997 22.5677 49.9117C24.6797 47.4157 26.4077 44.7277 27.7517 41.8477C26.0237 42.6157 23.7197 42.9997 20.8397 42.9997ZM72.9677 41.2717C67.3997 41.2717 62.5037 39.5437 58.2797 36.0877C53.8637 32.8237 51.6557 28.0237 51.6557 21.6877C51.6557 15.7357 53.6717 10.8397 57.7037 6.99971C61.5437 3.35172 66.6317 1.33572 72.9677 0.951723C80.0717 0.951723 85.6397 3.06372 89.6717 7.28772C93.7037 11.7037 95.7197 17.7517 95.7197 25.4317C95.7197 32.9197 93.9917 39.8317 90.5357 46.1677C86.8877 52.6957 81.9917 59.7037 75.8477 67.1917C74.1197 69.1117 72.1997 70.0717 70.0877 70.0717C68.3597 70.0717 66.8237 69.4957 65.4797 68.3437C64.1357 67.3837 63.4637 65.9437 63.4637 64.0237C63.4637 62.1037 64.1357 60.4717 65.4797 59.1277C66.0557 58.3597 67.9757 56.0557 71.2397 52.2157C74.5037 48.5677 77.2877 44.5357 79.5917 40.1197C77.8637 40.8877 75.6557 41.2717 72.9677 41.2717ZM21.4157 12.4717C18.5357 12.4717 16.1357 13.3357 14.2157 15.0637C12.1037 16.9837 11.0477 19.3837 11.0477 22.2637C11.0477 25.1437 12.0077 27.5437 13.9277 29.4637C15.8477 31.3837 18.4397 32.3437 21.7037 32.3437C24.9677 32.3437 27.6557 31.3837 29.7677 29.4637C31.6877 27.7357 32.6477 25.4317 32.6477 22.5517C32.6477 19.6717 31.6877 17.2717 29.7677 15.3517C27.8477 13.4317 25.0637 12.4717 21.4157 12.4717ZM73.5437 11.0317C70.8557 11.0317 68.3597 11.9917 66.0557 13.9117C63.7517 16.0237 62.5997 18.5197 62.5997 21.3997C62.5997 24.2797 63.5597 26.5837 65.4797 28.3117C67.3997 30.2317 69.9917 31.1917 73.2557 31.1917C76.5197 31.1917 79.2077 30.2317 81.3197 28.3117C83.2397 26.5837 84.1997 24.1837 84.1997 21.1117C84.1997 18.6157 83.3357 16.3117 81.6077 14.1997C79.8797 12.2797 77.1917 11.2237 73.5437 11.0317Z" fill="currentColor"/>
	</symbol>

</svg>